<svg width="25" height="24" viewBox="0 0 25 24" fill="none" xmlns="http://www.w3.org/2000/svg">
<path d="M17 7.75H7.5C7.09 7.75 6.75 7.41 6.75 7V5C6.75 2.44 7.94 1.25 10.5 1.25H14C16.56 1.25 17.75 2.44 17.75 5V7C17.75 7.41 17.41 7.75 17 7.75ZM8.25 6.25H16.25V5C16.25 3.3 15.7 2.75 14 2.75H10.5C8.8 2.75 8.25 3.3 8.25 5V6.25Z" fill="#095EF1"/>
<path d="M13.25 22.75H11.25C8.83 22.75 7.5 21.42 7.5 19V15C7.5 14.59 7.84 14.25 8.25 14.25H16.25C16.66 14.25 17 14.59 17 15V19C17 21.42 15.67 22.75 13.25 22.75ZM9 15.75V19C9 20.58 9.67 21.25 11.25 21.25H13.25C14.83 21.25 15.5 20.58 15.5 19V15.75H9Z" fill="#095EF1"/>
<path d="M18.25 18.75H16.25C15.84 18.75 15.5 18.41 15.5 18V15.75H9V18C9 18.41 8.66 18.75 8.25 18.75H6.25C3.83 18.75 2.5 17.42 2.5 15V10C2.5 7.58 3.83 6.25 6.25 6.25H18.25C20.67 6.25 22 7.58 22 10V15C22 17.42 20.67 18.75 18.25 18.75ZM17 17.25H18.25C19.83 17.25 20.5 16.58 20.5 15V10C20.5 8.42 19.83 7.75 18.25 7.75H6.25C4.67 7.75 4 8.42 4 10V15C4 16.58 4.67 17.25 6.25 17.25H7.5V15C7.5 14.59 7.84 14.25 8.25 14.25H16.25C16.66 14.25 17 14.59 17 15V17.25Z" fill="#095EF1"/>
<path d="M17.25 15.75H7.25C6.84 15.75 6.5 15.41 6.5 15C6.5 14.59 6.84 14.25 7.25 14.25H17.25C17.66 14.25 18 14.59 18 15C18 15.41 17.66 15.75 17.25 15.75Z" fill="#095EF1"/>
<path d="M10.25 11.75H7.25C6.84 11.75 6.5 11.41 6.5 11C6.5 10.59 6.84 10.25 7.25 10.25H10.25C10.66 10.25 11 10.59 11 11C11 11.41 10.66 11.75 10.25 11.75Z" fill="#095EF1"/>
</svg>
