<svg width="25" height="24" viewBox="0 0 25 24" fill="none" xmlns="http://www.w3.org/2000/svg">
<path d="M12.75 15.75C10.68 15.75 9 14.07 9 12C9 9.93 10.68 8.25 12.75 8.25C14.82 8.25 16.5 9.93 16.5 12C16.5 14.07 14.82 15.75 12.75 15.75ZM12.75 9.75C11.51 9.75 10.5 10.76 10.5 12C10.5 13.24 11.51 14.25 12.75 14.25C13.99 14.25 15 13.24 15 12C15 10.76 13.99 9.75 12.75 9.75Z" fill="#999999"/>
<path d="M15.96 22.19C15.75 22.19 15.54 22.16 15.33 22.11C14.71 21.94 14.19 21.55 13.86 21L13.74 20.8C13.15 19.78 12.34 19.78 11.75 20.8L11.64 20.99C11.31 21.55 10.79 21.95 10.17 22.11C9.54 22.28 8.89 22.19 8.34 21.86L6.62 20.87C6.01 20.52 5.57 19.95 5.38 19.26C5.2 18.57 5.29 17.86 5.64 17.25C5.93 16.74 6.01 16.28 5.84 15.99C5.67 15.7 5.24 15.53 4.65 15.53C3.19 15.53 2 14.34 2 12.88V11.12C2 9.66 3.19 8.47 4.65 8.47C5.24 8.47 5.67 8.3 5.84 8.01C6.01 7.72 5.94 7.26 5.64 6.75C5.29 6.14 5.2 5.42 5.38 4.74C5.56 4.05 6 3.48 6.62 3.13L8.35 2.14C9.48 1.47 10.97 1.86 11.65 3.01L11.77 3.21C12.36 4.23 13.17 4.23 13.76 3.21L13.87 3.02C14.55 1.86 16.04 1.47 17.18 2.15L18.9 3.14C19.51 3.49 19.95 4.06 20.14 4.75C20.32 5.44 20.23 6.15 19.88 6.76C19.59 7.27 19.51 7.73 19.68 8.02C19.85 8.31 20.28 8.48 20.87 8.48C22.33 8.48 23.52 9.67 23.52 11.13V12.89C23.52 14.35 22.33 15.54 20.87 15.54C20.28 15.54 19.85 15.71 19.68 16C19.51 16.29 19.58 16.75 19.88 17.26C20.23 17.87 20.33 18.59 20.14 19.27C19.96 19.96 19.52 20.53 18.9 20.88L17.17 21.87C16.79 22.08 16.38 22.19 15.96 22.19ZM12.75 18.49C13.64 18.49 14.47 19.05 15.04 20.04L15.15 20.23C15.27 20.44 15.47 20.59 15.71 20.65C15.95 20.71 16.19 20.68 16.39 20.56L18.12 19.56C18.38 19.41 18.58 19.16 18.66 18.86C18.74 18.56 18.7 18.25 18.55 17.99C17.98 17.01 17.91 16 18.35 15.23C18.79 14.46 19.7 14.02 20.84 14.02C21.48 14.02 21.99 13.51 21.99 12.87V11.11C21.99 10.48 21.48 9.96 20.84 9.96C19.7 9.96 18.79 9.52 18.35 8.75C17.91 7.98 17.98 6.97 18.55 5.99C18.7 5.73 18.74 5.42 18.66 5.12C18.58 4.82 18.39 4.58 18.13 4.42L16.4 3.43C15.97 3.17 15.4 3.32 15.14 3.76L15.03 3.95C14.46 4.94 13.63 5.5 12.74 5.5C11.85 5.5 11.02 4.94 10.45 3.95L10.34 3.75C10.09 3.33 9.53 3.18 9.1 3.43L7.37 4.43C7.11 4.58 6.91 4.83 6.83 5.13C6.75 5.43 6.79 5.74 6.94 6C7.51 6.98 7.58 7.99 7.14 8.76C6.7 9.53 5.79 9.97 4.65 9.97C4.01 9.97 3.5 10.48 3.5 11.12V12.88C3.5 13.51 4.01 14.03 4.65 14.03C5.79 14.03 6.7 14.47 7.14 15.24C7.58 16.01 7.51 17.02 6.94 18C6.79 18.26 6.75 18.57 6.83 18.87C6.91 19.17 7.1 19.41 7.36 19.57L9.09 20.56C9.3 20.69 9.55 20.72 9.78 20.66C10.02 20.6 10.22 20.44 10.35 20.23L10.46 20.04C11.03 19.06 11.86 18.49 12.75 18.49Z" fill="#999999"/>
</svg>
